#N canvas 294 553 628 464 12;
#X msg 70 173 0;
#X obj 104 198 until;
#X obj 70 204 bng 15 250 50 0 empty empty empty 17 7 0 10 #fcfcfc #000000
#000000;
#X obj 104 223 f;
#X obj 135 223 + 1;
#X obj 135 274 random;
#X obj 135 299 +;
#X obj 135 344 tabwrite a;
#X obj 135 248 t b f;
#X obj 70 89 bng 20 250 50 0 empty empty start 17 7 0 10 #ffc7c6 #000000
#000000;
#X msg 104 173 \$1;
#X obj 104 106 value cloud;
#X msg 367 158 set a;
#X msg 389 187 set b;
#X obj 265 44 inlet;
#X obj 265 69 unpack \$1 \$2 \$3;
#X obj 367 133 sel 0 1 2, f 10;
#X connect 0 0 2 0;
#X connect 0 0 3 0;
#X connect 1 0 3 0;
#X connect 2 0 11 0;
#X connect 3 0 4 0;
#X connect 3 0 7 1;
#X connect 4 0 8 0;
#X connect 5 0 6 0;
#X connect 6 0 7 0;
#X connect 8 0 5 0;
#X connect 8 1 3 1;
#X connect 9 0 0 0;
#X connect 10 0 1 0;
#X connect 11 0 10 0;
#X connect 12 0 7 0;
#X connect 13 0 7 0;
#X connect 14 0 15 0;
#X connect 15 0 5 1;
#X connect 15 0 9 0;
#X connect 15 1 6 1;
#X connect 15 2 16 0;
#X connect 16 0 12 0;
#X connect 16 1 13 0;
