#N canvas 1496 123 424 578 12;
#X floatatom 41 60 10 0 0 0 - - - 0;
#X obj 41 84 t f f;
#X obj 95 114 +;
#X obj 152 69 r grain_dur;
#X floatatom 152 94 5 0 0 0 - - - 0;
#X msg 41 198 \$1 \, \$2 \$3;
#X obj 41 173 pack f f f;
#X obj 41 223 line~;
#X obj 152 129 * 44.1;
#X obj 42 436 outlet~;
#X obj 42 411 *~;
#X obj 41 9 inlet;
#X obj 41 360 tabread4~ wave;
#X obj 163 391 tabread~ wave_envelope;
#X connect 0 0 1 0;
#X connect 1 0 6 0;
#X connect 1 1 2 0;
#X connect 2 0 6 1;
#X connect 3 0 4 0;
#X connect 4 0 6 2;
#X connect 4 0 8 0;
#X connect 5 0 7 0;
#X connect 6 0 5 0;
#X connect 7 0 12 0;
#X connect 7 0 13 0;
#X connect 8 0 2 1;
#X connect 10 0 9 0;
#X connect 11 0 0 0;
#X connect 12 0 10 0;
#X connect 13 0 10 1;
