#N canvas 346 379 561 474 12;
#X msg 53 141 0;
#X obj 87 166 until;
#X obj 53 172 bng 15 250 50 0 empty empty empty 17 7 0 10 #fcfcfc #000000
#000000;
#X obj 87 191 f;
#X obj 118 191 + 1;
#X obj 118 242 random;
#X obj 118 267 +;
#X obj 118 312 tabwrite a;
#X obj 118 216 t b f;
#X obj 53 57 bng 20 250 50 0 empty empty start 17 7 0 10 #ffc7c6 #000000
#000000;
#X msg 87 141 \$1;
#X obj 87 74 value cloud;
#X obj 248 12 inlet;
#X obj 248 37 unpack \$1 \$2;
#X obj 212 312 tabwrite b;
#X obj 265 263 +;
#X obj 283 205 r ratio;
#X floatatom 299 231 5 0 0 0 - - - 0;
#X connect 0 0 2 0;
#X connect 0 0 3 0;
#X connect 1 0 3 0;
#X connect 2 0 11 0;
#X connect 3 0 4 0;
#X connect 3 0 7 1;
#X connect 3 0 14 1;
#X connect 4 0 8 0;
#X connect 5 0 6 0;
#X connect 6 0 7 0;
#X connect 6 0 15 0;
#X connect 8 0 5 0;
#X connect 8 1 3 1;
#X connect 9 0 0 0;
#X connect 10 0 1 0;
#X connect 11 0 10 0;
#X connect 12 0 13 0;
#X connect 13 0 5 1;
#X connect 13 0 9 0;
#X connect 13 1 6 1;
#X connect 15 0 14 0;
#X connect 16 0 15 1;
#X connect 16 0 17 0;
