#N canvas 126 147 597 694 12;
#X obj 145 66 inlet;
#X listbox 242 86 20 0 0 0 - - - 0;
#X floatatom 200 195 5 0 0 0 - - - 0;
#X floatatom 101 179 5 0 0 0 - - - 0;
#X floatatom 227 170 5 0 0 0 - - - 0;
#X obj 345 246 receive gliss_clarity;
#X floatatom 345 298 5 0 0 0 - - - 0;
#X obj 348 428 metro 200;
#X obj 348 457 bng 15 250 50 0 empty empty empty 17 7 0 10 #fcfcfc
#000000 #000000;
#X obj 73 585 osc~;
#X floatatom 82 387 5 0 0 0 - - - 0;
#X obj 76 372 hsl 200 15 20 2000 0 0 empty empty freqs -2 -8 0 10 #fcfcfc
#000000 #000000 0 0;
#X obj 74 637 outlet~;
#X obj 73 328 line;
#X obj 73 266 pack f f f f;
#X msg 73 296 \$1 \, \$2 \$3 \$4;
#X obj 145 404 select 0;
#X obj 145 429 f;
#X obj 145 139 unpack \$1 \$2 \$3 \$4;
#X floatatom 268 196 5 0 0 0 - - - 0;
#X obj 471 426 r cloud;
#X obj 471 451 int;
#X obj 348 570 line;
#X obj 348 590 tabread gliss_envelope;
#X floatatom 448 610 8 0 0 0 - - - 0;
#X obj 348 512 pack \$1 \$2 \$3 \$4;
#X msg 348 545 0 \, \$2 \$3 \$4;
#X obj 73 610 *~;
#X connect 0 0 1 0;
#X connect 0 0 18 0;
#X connect 5 0 6 0;
#X connect 5 0 14 3;
#X connect 5 0 25 3;
#X connect 7 0 8 0;
#X connect 8 0 14 0;
#X connect 8 0 25 0;
#X connect 9 0 27 0;
#X connect 11 0 10 0;
#X connect 11 0 9 0;
#X connect 13 0 11 0;
#X connect 14 0 15 0;
#X connect 15 0 13 0;
#X connect 16 0 17 0;
#X connect 17 0 14 1;
#X connect 17 0 14 0;
#X connect 18 0 3 0;
#X connect 18 0 7 0;
#X connect 18 0 16 0;
#X connect 18 1 2 0;
#X connect 18 1 14 0;
#X connect 18 2 4 0;
#X connect 18 2 14 1;
#X connect 18 3 19 0;
#X connect 18 3 14 2;
#X connect 18 3 7 1;
#X connect 18 3 25 2;
#X connect 20 0 21 0;
#X connect 21 0 25 1;
#X connect 22 0 23 0;
#X connect 23 0 24 0;
#X connect 23 0 27 1;
#X connect 25 0 26 0;
#X connect 26 0 22 0;
#X connect 27 0 12 0;
